HIERARCHY
ROOT hip
{
  OFFSET 0 0 0
  CHANNELS 6 Xposition Yposition Zposition Zrotation Yrotation Xrotation
  JOINT abdomen
  {
    OFFSET 0 20.6881 -0.73152
    CHANNELS 3 Zrotation Xrotation Yrotation
    JOINT chest
    {
      OFFSET 0 11.7043 -0.48768
      CHANNELS 3 Zrotation Xrotation Yrotation
      JOINT neck
      {
        OFFSET 0 22.1894 -2.19456
        CHANNELS 3 Zrotation Xrotation Yrotation
        JOINT head
        {
          OFFSET -0.24384 7.07133 1.2192
          CHANNELS 3 Zrotation Xrotation Yrotation
          JOINT leftEye
          {
            OFFSET 4.14528 8.04674 8.04672
            CHANNELS 3 Zrotation Xrotation Yrotation
            End Site
            {
              OFFSET 1 0 0
            }
          }
          JOINT rightEye
          {
            OFFSET -3.6576 8.04674 8.04672
            CHANNELS 3 Zrotation Xrotation Yrotation
            End Site
            {
              OFFSET 1 0 0
            }
          }
        }
      }
      JOINT rCollar
      {
        OFFSET -2.68224 19.2634 -4.8768
        CHANNELS 3 Zrotation Xrotation Yrotation
        JOINT rShldr
        {
          OFFSET -8.77824 -1.95073 1.46304
          CHANNELS 3 Zrotation Xrotation Yrotation
          JOINT rForeArm
          {
            OFFSET -28.1742 -1.7115 0.48768
            CHANNELS 3 Zrotation Xrotation Yrotation
            JOINT rHand
            {
              OFFSET -22.5879 0.773209 7.07136
              CHANNELS 3 Zrotation Xrotation Yrotation
              JOINT rThumb1
              {
                OFFSET -1.2192 -0.487915 3.41376
                CHANNELS 3 Zrotation Xrotation Yrotation
                JOINT rThumb2
                {
                  OFFSET -3.37035 -0.52449 3.41376
                  CHANNELS 3 Zrotation Xrotation Yrotation
                  End Site
                  {
                    OFFSET -1.78271 -1.18214 1.43049
                  }
                }
              }
              JOINT rIndex1
              {
                OFFSET -7.75947 0.938293 5.60832
                CHANNELS 3 Zrotation Xrotation Yrotation
                JOINT rIndex2
                {
                  OFFSET -2.54057 -0.884171 1.56538
                  CHANNELS 3 Zrotation Xrotation Yrotation
                  End Site
                  {
                    OFFSET -1.62519 -0.234802 1.16502
                  }
                }
              }
              JOINT rMid1
              {
                OFFSET -8.24714 1.18213 3.41376
                CHANNELS 3 Zrotation Xrotation Yrotation
                JOINT rMid2
                {
                  OFFSET -3.10165 -0.590103 1.0647
                  CHANNELS 3 Zrotation Xrotation Yrotation
                  End Site
                  {
                    OFFSET -2.48547 -0.328903 0.83742
                  }
                }
              }
              JOINT rRing1
              {
                OFFSET -8.82822 0.546677 1.51678
                CHANNELS 3 Zrotation Xrotation Yrotation
                JOINT rRing2
                {
                  OFFSET -2.60934 -0.819778 -0.0198488
                  CHANNELS 3 Zrotation Xrotation Yrotation
                  End Site
                  {
                    OFFSET -2.33842 -0.294052 0.168128
                  }
                }
              }
              JOINT rPinky1
              {
                OFFSET -8.27202 -0.0477905 -0.4584
                CHANNELS 3 Zrotation Xrotation Yrotation
                JOINT rPinky2
                {
                  OFFSET -1.82734 -0.647385 -0.700984
                  CHANNELS 3 Zrotation Xrotation Yrotation
                  End Site
                  {
                    OFFSET -1.69225 -0.51767 -0.607171
                  }
                }
              }
            }
          }
        }
      }
      JOINT lCollar
      {
        OFFSET 2.68224 19.2634 -4.8768
        CHANNELS 3 Zrotation Xrotation Yrotation
        JOINT lShldr
        {
          OFFSET 8.77824 -1.95073 1.46304
          CHANNELS 3 Zrotation Xrotation Yrotation
          JOINT lForeArm
          {
            OFFSET 28.1742 -1.7115 0.48768
            CHANNELS 3 Zrotation Xrotation Yrotation
            JOINT lHand
            {
              OFFSET 22.5879 0.773209 7.07136
              CHANNELS 3 Zrotation Xrotation Yrotation
              JOINT lThumb1
              {
                OFFSET 1.2192 -0.487915 3.41376
                CHANNELS 3 Zrotation Xrotation Yrotation
                JOINT lThumb2
                {
                  OFFSET 3.37035 -0.52449 3.41376
                  CHANNELS 3 Zrotation Xrotation Yrotation
                  End Site
                  {
                    OFFSET 1.78271 -1.18214 1.43049
                  }
                }
              }
              JOINT lIndex1
              {
                OFFSET 7.75947 0.938293 5.60832
                CHANNELS 3 Zrotation Xrotation Yrotation
                JOINT lIndex2
                {
                  OFFSET 2.54057 -0.884171 1.56538
                  CHANNELS 3 Zrotation Xrotation Yrotation
                  End Site
                  {
                    OFFSET 1.62519 -0.234802 1.16502
                  }
                }
              }
              JOINT lMid1
              {
                OFFSET 8.24714 1.18213 3.41376
                CHANNELS 3 Zrotation Xrotation Yrotation
                JOINT lMid2
                {
                  OFFSET 3.10165 -0.590103 1.0647
                  CHANNELS 3 Zrotation Xrotation Yrotation
                  End Site
                  {
                    OFFSET 2.48547 -0.328903 0.83742
                  }
                }
              }
              JOINT lRing1
              {
                OFFSET 8.82822 0.546677 1.51678
                CHANNELS 3 Zrotation Xrotation Yrotation
                JOINT lRing2
                {
                  OFFSET 2.60934 -0.819778 -0.0198488
                  CHANNELS 3 Zrotation Xrotation Yrotation
                  End Site
                  {
                    OFFSET 2.33842 -0.294052 0.168128
                  }
                }
              }
              JOINT lPinky1
              {
                OFFSET 8.27202 -0.0477905 -0.4584
                CHANNELS 3 Zrotation Xrotation Yrotation
                JOINT lPinky2
                {
                  OFFSET 1.82734 -0.647385 -0.700984
                  CHANNELS 3 Zrotation Xrotation Yrotation
                  End Site
                  {
                    OFFSET 1.69225 -0.51767 -0.607171
                  }
                }
              }
            }
          }
        }
      }
    }
  }
  JOINT rButtock
  {
    OFFSET -8.77824 4.35084 1.2192
    CHANNELS 3 Zrotation Xrotation Yrotation
    JOINT rThigh
    {
      OFFSET 0 -1.70687 -2.19456
      CHANNELS 3 Zrotation Xrotation Yrotation
      JOINT rShin
      {
        OFFSET 0 -36.8199 0.73152
        CHANNELS 3 Zrotation Xrotation Yrotation
        JOINT rFoot
        {
          OFFSET 0.73152 -45.1104 -5.12064
          CHANNELS 3 Zrotation Xrotation Yrotation
          End Site
          {
            OFFSET -1.1221 -3.69964 12.103
          }
        }
      }
    }
  }
  JOINT lButtock
  {
    OFFSET 8.77824 4.35084 1.2192
    CHANNELS 3 Zrotation Xrotation Yrotation
    JOINT lThigh
    {
      OFFSET 0 -1.70687 -2.19456
      CHANNELS 3 Zrotation Xrotation Yrotation
      JOINT lShin
      {
        OFFSET 0 -36.8199 0.73152
        CHANNELS 3 Zrotation Xrotation Yrotation
        JOINT lFoot
        {
          OFFSET -0.73152 -45.1104 -5.12064
          CHANNELS 3 Zrotation Xrotation Yrotation
          End Site
          {
            OFFSET 1.1221 -3.69964 12.103
          }
        }
      }
    }
  }
}
MOTION
Frames:	4
Frame Time:	0.00833333
16.881 86.0007 3.02319 0.0 0.0 0.0 5.19861 0.00974757 0.139988 1.43259 0.0435217 0.247443 1.21532e-13 -1.59028e-15 3.9757e-16 3.62835e-13 -6.36111e-15 1.19271e-15 -0.0 0.0 0.0 -0.0 0.0 0.0 6.06779e-14 -3.10213e-16 2.98177e-16 1.27427e-12 -6.16854e-15 1.0138e-14 2.19733e-11 -6.74993e-12 -8.5875e-14 2.5057e-10 5.37372e-12 1.48532e-12 5.91211e-10 -2.99151e-12 3.00244e-12 1.02098e-09 -5.17158e-12 5.16681e-12 5.91212e-10 -2.99131e-12 2.99926e-12 7.73091 5.47488 0.417314 5.91211e-10 -2.99091e-12 3.00562e-12 2.90554 0.965183 0.102902 5.9122e-10 -2.99131e-12 3.00403e-12 10.2786 0.731801 0.0259123 5.91206e-10 -2.98972e-12 3.01199e-12 2.22167 -0.733487 -0.20892 6.04853e-14 -3.11378e-16 -9.93923e-17 1.27211e-12 -7.17488e-15 9.1441e-15 2.18369e-11 6.35614e-12 -9.22361e-14 2.50753e-10 -7.77613e-12 1.53303e-12 5.91308e-10 -3.07307e-12 3.04697e-12 1.02116e-09 -5.30517e-12 5.25428e-12 5.91302e-10 -3.07083e-12 3.05651e-12 -7.73091 5.47488 -0.417314 5.91309e-10 -3.07271e-12 3.04697e-12 -2.90554 0.965183 -0.102902 5.913e-10 -3.07281e-12 3.05095e-12 -10.2786 0.731801 -0.0259123 5.91316e-10 -3.07162e-12 3.05015e-12 -2.22167 -0.733487 0.20892 -2.03217e-16 0.0 -3.88251e-19 4.31975 -12.4776 -0.609054 0.0183798 16.9784 0.506168 -0.558143 -4.5265 -0.03229 2.03217e-16 0.0 3.88251e-19 3.54045 -1.95115 -0.0409366 0.00769226 -2.07878 0.062614 0.40842 4.00355 -0.125096
20.5205 84.5617 -2.98986 -15.4293 86.6836 -1.2409 5.25565 -3.99629 -0.122777 1.98183 0.812889 0.107654 0.0861965 -1.49003 -2.45139 49.0132 7.20828 -0.646896 -0.0 0.0 0.0 -0.0 0.0 0.0 4.41937e-14 -2.29485e-13 1.82824e-14 18.7535 14.8684 -0.410844 -5.76669 -3.02534 8.52357 0.00479546 1.5365 0.215661 -4.07546e-10 -3.62321e-10 1.27304e-10 -7.03404e-10 -6.25314e-10 2.26402e-10 -4.07543e-10 -3.6232e-10 1.27299e-10 7.73091 5.47488 0.417314 -4.07546e-10 -3.6232e-10 1.27305e-10 2.90554 0.965183 0.102902 -4.07538e-10 -3.62321e-10 1.27303e-10 10.2786 0.731801 0.0259123 -4.07549e-10 -3.62319e-10 1.27309e-10 2.22167 -0.733487 -0.20892 4.40502e-14 -2.29485e-13 1.79527e-14 -20.4734 11.3378 -0.147589 5.49582 -2.81776 -8.20724 -0.00246795 -1.10317 0.154937 9.34914e-10 -2.28942e-10 -4.49124e-10 1.61433e-09 -3.95451e-10 -7.76436e-10 9.34908e-10 -2.28941e-10 -4.49111e-10 -7.73091 5.47488 -0.417314 9.34914e-10 -2.28944e-10 -4.49123e-10 -2.90554 0.965183 -0.102902 9.34906e-10 -2.28944e-10 -4.4912e-10 -10.2786 0.731801 -0.0259123 9.34922e-10 -2.28942e-10 -4.49122e-10 -2.22167 -0.733487 0.20892 -2.03217e-16 0.0 -3.88251e-19 4.79786 -15.3336 4.72796 0.00768279 18.6552 0.475929 -1.13013 -8.56079 -5.03076 2.03217e-16 0.0 3.88251e-19 3.13852 -5.15723 -0.862014 0.0363148 1.02322 -0.00616127 0.440964 4.15914 0.955755
20.5213 84.5617 -2.99309 -15.8787 86.7511 -1.6912 5.27299 -8.23083 -0.407316 2.56932 1.6283 -0.0411303 0.0377717 -3.05593 -5.04638 101.008 14.8244 -1.3663 -0.0 0.0 0.0 -0.0 0.0 0.0 2.7097e-14 -4.71616e-13 3.7033e-14 38.844 30.5848 -0.944908 -10.8974 -6.00248 17.6128 -0.00272452 3.15708 0.443648 -1.46179e-09 -7.37415e-10 2.61903e-10 -2.52354e-09 -1.27262e-09 4.65807e-10 -1.46179e-09 -7.37414e-10 2.61896e-10 7.73091 5.47488 0.417314 -1.46179e-09 -7.37415e-10 2.61903e-10 2.90554 0.965183 0.102902 -1.46179e-09 -7.37415e-10 2.61901e-10 10.2786 0.731801 0.0259123 -1.4618e-09 -7.37413e-10 2.61904e-10 2.22167 -0.733487 -0.20892 2.70053e-14 -4.71615e-13 3.67752e-14 -42.0486 23.3108 -0.323771 10.4405 -5.60669 -16.9514 0.00142602 -2.27525 0.319747 1.28929e-09 -4.65031e-10 -9.29726e-10 2.22603e-09 -8.03241e-10 -1.60728e-09 1.28928e-09 -4.6503e-10 -9.29708e-10 -7.73091 5.47488 -0.417314 1.28929e-09 -4.65035e-10 -9.29723e-10 -2.90554 0.965183 -0.102902 1.28928e-09 -4.65035e-10 -9.29721e-10 -10.2786 0.731801 -0.0259123 1.2893e-09 -4.65032e-10 -9.29723e-10 -2.22167 -0.733487 0.20892 -2.03217e-16 0.0 -3.88251e-19 5.90575 -18.1637 10.5377 -0.00143372 20.429 0.44374 -2.51363 -12.6861 -10.4534 2.03217e-16 0.0 3.88251e-19 2.61242 -8.54136 -1.74204 0.0747897 4.30041 -0.0789671 0.468803 4.32532 2.09723
20.5275 84.5653 -2.99925 -15.7285 86.7833 -1.5642 5.25764 -12.0076 -0.661896 3.09159 2.35162 -0.172102 -0.123724 -4.43733 -7.37391 147.559 21.6134 -2.07102 -0.0 0.0 0.0 -0.0 0.0 0.0 1.12252e-14 -6.87834e-13 5.42507e-14 57.119 44.594 -1.673 -14.676 -8.27417 25.8231 -0.0204089 4.60924 0.648848 -2.40506e-09 -1.08098e-09 3.75906e-10 -4.15217e-09 -1.8656e-09 6.68873e-10 -2.40506e-09 -1.08098e-09 3.75897e-10 7.73091 5.47488 0.417314 -2.40506e-09 -1.08098e-09 3.75903e-10 2.90554 0.965183 0.102902 -2.40505e-09 -1.08098e-09 3.75901e-10 10.2786 0.731801 0.0259123 -2.40506e-09 -1.08098e-09 3.75902e-10 2.22167 -0.733487 -0.20892 1.118e-14 -6.87833e-13 5.4057e-14 -61.2143 34.0125 -0.52373 14.1301 -7.76091 -24.8344 0.0105204 -3.30942 0.465502 1.62213e-09 -6.8068e-10 -1.35347e-09 2.80065e-09 -1.17574e-09 -2.33982e-09 1.62212e-09 -6.8068e-10 -1.35345e-09 -7.73091 5.47488 -0.417314 1.62212e-09 -6.80686e-10 -1.35346e-09 -2.90554 0.965183 -0.102902 1.62212e-09 -6.80686e-10 -1.35346e-09 -10.2786 0.731801 -0.0259123 1.62213e-09 -6.80683e-10 -1.35347e-09 -2.22167 -0.733487 0.20892 -2.03217e-16 0.0 -3.88251e-19 7.41378 -20.4519 15.893 -0.00805582 22.0088 0.414786 -4.43402 -16.1522 -15.485 2.03217e-16 0.0 3.88251e-19 2.05393 -11.56 -2.54541 0.115986 7.22721 -0.144777 0.488435 4.46543 3.11877
